G04*
G04 #@! TF.GenerationSoftware,Altium Limited,Altium Designer,23.4.1 (23)*
G04*
G04 Layer_Physical_Order=1*
G04 Layer_Color=255*
%FSLAX44Y44*%
%MOMM*%
G71*
G04*
G04 #@! TF.SameCoordinates,2680DE8E-D3BC-4794-95DD-0B2387E44050*
G04*
G04*
G04 #@! TF.FilePolarity,Positive*
G04*
G01*
G75*
%ADD18C,1.7780*%
%ADD20R,1.7780X1.7780*%
G04:AMPARAMS|DCode=21|XSize=3.6068mm|YSize=5.715mm|CornerRadius=1.8034mm|HoleSize=0mm|Usage=FLASHONLY|Rotation=90.000|XOffset=0mm|YOffset=0mm|HoleType=Round|Shape=RoundedRectangle|*
%AMROUNDEDRECTD21*
21,1,3.6068,2.1082,0,0,90.0*
21,1,0.0000,5.7150,0,0,90.0*
1,1,3.6068,1.0541,0.0000*
1,1,3.6068,1.0541,0.0000*
1,1,3.6068,-1.0541,0.0000*
1,1,3.6068,-1.0541,0.0000*
%
%ADD21ROUNDEDRECTD21*%
%ADD22R,1.5748X1.5748*%
%ADD23C,1.5748*%
%ADD41R,1.4500X1.0500*%
%ADD42R,1.0500X1.4500*%
%ADD43R,0.7000X1.9000*%
%ADD44C,0.5080*%
%ADD45C,1.1430*%
%ADD46C,1.2700*%
%ADD47R,1.5748X1.5748*%
%ADD48R,2.0320X2.0320*%
%ADD49C,2.0320*%
%ADD50R,1.5240X1.5240*%
%ADD51C,1.5240*%
%ADD52C,5.0800*%
%ADD53R,2.5400X2.5400*%
%ADD54C,2.5400*%
%ADD55R,2.5400X2.5400*%
%ADD56R,1.3970X1.3970*%
%ADD57C,1.3970*%
%ADD58C,1.3462*%
%ADD59C,2.4130*%
%ADD60C,2.2860*%
%ADD61C,1.9050*%
%ADD62R,1.3970X1.3970*%
%ADD63C,1.2700*%
%ADD64R,1.5240X1.5240*%
D18*
X178054Y1593850D02*
D03*
Y1618850D02*
D03*
X323054Y1568850D02*
D03*
Y1618850D02*
D03*
D20*
X178054Y1568850D02*
D03*
D21*
X253054Y1537850D02*
D03*
Y1649850D02*
D03*
D22*
X1041400Y269240D02*
D03*
X1065530Y368300D02*
D03*
X774446Y482600D02*
D03*
X774700Y284480D02*
D03*
X1041400Y619760D02*
D03*
Y436880D02*
D03*
X1109980Y142240D02*
D03*
X371094Y1543050D02*
D03*
D23*
X1023620Y695960D02*
D03*
X1049020D02*
D03*
X1074420D02*
D03*
X1041400Y218440D02*
D03*
Y193040D02*
D03*
Y243840D02*
D03*
X1040130Y368300D02*
D03*
Y342900D02*
D03*
X1065530Y317500D02*
D03*
X1040130D02*
D03*
X1065530Y342900D02*
D03*
X993648Y1169162D02*
D03*
X942848D02*
D03*
X968248D02*
D03*
X774446Y457200D02*
D03*
X774700Y386080D02*
D03*
Y360680D02*
D03*
Y335280D02*
D03*
Y309880D02*
D03*
X1023620Y777240D02*
D03*
X1049020D02*
D03*
X1074420D02*
D03*
X1099820D02*
D03*
X1041400Y594360D02*
D03*
Y568960D02*
D03*
Y462280D02*
D03*
Y487680D02*
D03*
X1109980Y167640D02*
D03*
Y193040D02*
D03*
X371094Y1568450D02*
D03*
Y1593850D02*
D03*
Y1619250D02*
D03*
Y1644650D02*
D03*
D41*
X805942Y1249278D02*
D03*
Y1230778D02*
D03*
X1140460Y308970D02*
D03*
Y290470D02*
D03*
X1109980Y519684D02*
D03*
Y538184D02*
D03*
Y561234D02*
D03*
Y579734D02*
D03*
Y606954D02*
D03*
Y625454D02*
D03*
X660400Y172318D02*
D03*
Y153818D02*
D03*
X617220Y172318D02*
D03*
Y153818D02*
D03*
X573786D02*
D03*
Y172318D02*
D03*
X530860Y153786D02*
D03*
Y172286D02*
D03*
D42*
X140314Y1665732D02*
D03*
X121814D02*
D03*
X140314Y1613662D02*
D03*
X121814D02*
D03*
X140314Y1558798D02*
D03*
X121814D02*
D03*
X282850Y492760D02*
D03*
X301350D02*
D03*
X251460D02*
D03*
X232960D02*
D03*
X659490Y449580D02*
D03*
X640990D02*
D03*
X640080Y492760D02*
D03*
X658580D02*
D03*
X557890Y368300D02*
D03*
X539390D02*
D03*
Y411480D02*
D03*
X557890D02*
D03*
X539390Y452120D02*
D03*
X557890D02*
D03*
X539390Y490220D02*
D03*
X557890D02*
D03*
X473160D02*
D03*
X454660D02*
D03*
X474070Y452120D02*
D03*
X455570D02*
D03*
X301350Y450850D02*
D03*
X282850D02*
D03*
X455570Y411480D02*
D03*
X474070D02*
D03*
X282850Y408940D02*
D03*
X301350D02*
D03*
X282850Y368300D02*
D03*
X301350D02*
D03*
X282850Y327660D02*
D03*
X301350D02*
D03*
X121814Y1639570D02*
D03*
X140314D02*
D03*
X121814Y1586230D02*
D03*
X140314D02*
D03*
X121814Y1532382D02*
D03*
X140314D02*
D03*
X391940Y246380D02*
D03*
X373440D02*
D03*
X766170Y162560D02*
D03*
X747670D02*
D03*
X766170Y198120D02*
D03*
X747670D02*
D03*
X766170Y236220D02*
D03*
X747670D02*
D03*
X474070Y370840D02*
D03*
X455570D02*
D03*
X282850Y248920D02*
D03*
X301350D02*
D03*
X474070Y332740D02*
D03*
X455570D02*
D03*
X301350Y289560D02*
D03*
X282850D02*
D03*
D43*
X761238Y1177042D02*
D03*
X748538D02*
D03*
X735838D02*
D03*
X723138D02*
D03*
X710438D02*
D03*
X697738D02*
D03*
X685038D02*
D03*
X672338D02*
D03*
X659638D02*
D03*
X646938D02*
D03*
Y1273042D02*
D03*
X659638D02*
D03*
X672338D02*
D03*
X685038D02*
D03*
X697738D02*
D03*
X710438D02*
D03*
X723138D02*
D03*
X735838D02*
D03*
X748538D02*
D03*
X761238D02*
D03*
D44*
X252219Y304988D02*
X255841Y308610D01*
X281940D01*
X301350Y289560D02*
X313690D01*
X275590Y226549D02*
Y227330D01*
Y226060D02*
Y226549D01*
Y227330D02*
X282850Y234590D01*
Y248920D01*
X301350D02*
Y263800D01*
X294640Y270510D02*
X301350Y263800D01*
X288290Y270510D02*
X294640D01*
X282850Y275950D02*
X288290Y270510D01*
X282850Y275950D02*
Y289560D01*
X259080D02*
X282850D01*
X260350Y241789D02*
Y269240D01*
Y241789D02*
X275590Y226549D01*
X469900Y435610D02*
X474070Y439780D01*
X448964Y435610D02*
X469900D01*
X474070Y439780D02*
Y452120D01*
X486410Y427990D02*
X495300Y436880D01*
Y502920D01*
X461010Y427990D02*
X486410D01*
Y411480D02*
X527050Y452120D01*
X474070Y411480D02*
X486410D01*
X456394Y412304D02*
Y423374D01*
X455570Y411480D02*
X456394Y412304D01*
X437534Y447040D02*
X448964Y435610D01*
X456394Y423374D02*
X461010Y427990D01*
X486410Y511810D02*
X495300Y502920D01*
X483362Y313182D02*
X520700Y350520D01*
X439420Y320802D02*
X447040Y313182D01*
X483362D01*
X439420Y320802D02*
Y327224D01*
X444936Y332740D01*
X439420Y338256D02*
Y364810D01*
Y338256D02*
X444936Y332740D01*
X660400Y142240D02*
Y153818D01*
Y142240D02*
X670530Y132110D01*
X616966Y153564D02*
X617220Y153818D01*
X616966Y124714D02*
Y153564D01*
X513080Y96520D02*
X588772D01*
X616966Y124714D01*
X573680Y153924D02*
X573786Y153818D01*
X559308Y153924D02*
X573680D01*
X549910Y163322D02*
X559308Y153924D01*
X612140Y203200D02*
X617220Y198120D01*
Y172318D02*
Y198120D01*
X660400Y172318D02*
Y205740D01*
X646430Y219710D02*
X660400Y205740D01*
X579120Y207010D02*
X591820Y219710D01*
X573786Y172318D02*
X574040Y172572D01*
Y189738D01*
X577662Y205552D02*
X579120Y207010D01*
X577662Y193360D02*
Y205552D01*
X574040Y189738D02*
X577662Y193360D01*
X746052Y160942D02*
X747670Y162560D01*
X737776Y160942D02*
X746052D01*
X732790Y155956D02*
X737776Y160942D01*
X732790Y144780D02*
Y155956D01*
X766170Y162560D02*
X776986D01*
X781232Y166806D01*
Y171014D01*
X774446Y177800D02*
X781232Y171014D01*
X708660Y177800D02*
X774446D01*
X1049020Y293370D02*
X1065530Y276860D01*
X1024636Y310134D02*
X1041400Y293370D01*
X1049020D01*
X1065530Y214630D02*
Y276860D01*
X1024636Y310134D02*
Y324549D01*
X1135380Y275082D02*
X1140460Y280162D01*
Y292950D01*
X1086358Y275082D02*
X1135380D01*
X1065530Y295910D02*
X1086358Y275082D01*
X1070610Y502920D02*
X1095502D01*
X997580D02*
X1070610D01*
X1083310Y515620D01*
X1105259Y503279D02*
X1109980Y508000D01*
X1096010Y502920D02*
X1104900D01*
X1083310Y515620D02*
Y525272D01*
X1049710Y591820D02*
X1105154D01*
X1109980Y596646D02*
Y606954D01*
X1105154Y591820D02*
X1109980Y596646D01*
X140314Y1532382D02*
X151892D01*
X157480Y1537970D01*
Y1554480D01*
X97790Y1658620D02*
X104902Y1665732D01*
X121814D01*
X152908D02*
X162560Y1656080D01*
X140314Y1665732D02*
X152908D01*
X1065530Y342900D02*
X1088390Y320040D01*
Y292100D02*
Y320040D01*
X1065530Y295910D02*
Y317500D01*
Y342900D02*
X1111250Y388620D01*
X1123950D01*
X1040130Y368300D02*
Y403860D01*
X1041400Y405130D01*
X1024982Y353152D02*
X1040130Y368300D01*
X1024636Y353152D02*
X1024982D01*
X1123950Y388620D02*
X1140460Y405130D01*
Y526459D01*
X1024636Y337534D02*
Y353152D01*
Y337534D02*
X1024921Y337249D01*
X1013350Y335139D02*
X1013491Y334998D01*
X1024921Y324834D02*
Y337249D01*
X1024636Y324549D02*
X1024921Y324834D01*
X987561Y335139D02*
X1013350D01*
X987420Y335280D02*
X987561Y335139D01*
X1041400Y405130D02*
Y436880D01*
X987420Y386080D02*
X987740D01*
X1014410Y359410D01*
X1014730D01*
X1041400Y193040D02*
X1043940D01*
X1065530Y214630D01*
X1023620Y218440D02*
X1041400D01*
X1013460Y208280D02*
X1023620Y218440D01*
X1022350Y243840D02*
X1041400D01*
X1012190Y233680D02*
X1022350Y243840D01*
X1028700Y449580D02*
X1041400Y436880D01*
X977900Y449580D02*
X1028700D01*
X313690Y289560D02*
X322580Y298450D01*
X312420Y435610D02*
Y443324D01*
X319946Y450850D01*
X312420Y435610D02*
X323850Y424180D01*
X301350Y450850D02*
X319946D01*
X323850D01*
X557530Y430530D02*
X557883Y430883D01*
X566773D01*
X571500Y435610D01*
Y447040D01*
X1066800Y576580D02*
X1068070D01*
X1059180Y568960D02*
X1066800Y576580D01*
X1059180Y548640D02*
Y568960D01*
X1049020Y538480D02*
X1059180Y548640D01*
X987420Y538480D02*
X1049020D01*
X1086060Y560652D02*
X1109186D01*
X1109980Y636905D02*
X1119505Y646430D01*
X1130300D02*
X1140460Y636270D01*
X1119505Y646430D02*
X1130300D01*
X1140460Y590550D02*
Y636270D01*
X1084580Y643890D02*
X1102995D01*
X1109980Y636905D01*
X1060450Y619760D02*
X1084580Y643890D01*
X1041400Y619760D02*
X1060450D01*
X1109980Y636905D02*
Y674370D01*
Y625454D02*
Y636905D01*
X1100908Y683442D02*
X1109980Y674370D01*
X772160Y1297940D02*
X789940D01*
X805688Y1259967D02*
Y1282192D01*
X789940Y1297940D02*
X805688Y1282192D01*
X761238Y1287018D02*
X772160Y1297940D01*
X167640Y450850D02*
Y466090D01*
X220980Y519430D01*
X149860Y275590D02*
X201930Y327660D01*
X87961Y275590D02*
X149860D01*
X201930Y327660D02*
X282850D01*
X243840Y303530D02*
X245298Y304988D01*
X252219D01*
X539390Y353430D02*
X547380Y345440D01*
X578932Y346522D02*
X580390Y347980D01*
X574686Y346522D02*
X578932D01*
X573604Y345440D02*
X574686Y346522D01*
X547380Y345440D02*
X573604D01*
X539390Y353430D02*
Y368300D01*
Y506370D02*
Y539390D01*
X576650Y576650D02*
Y623570D01*
X539390Y539390D02*
X576650Y576650D01*
X549910Y516890D02*
X632460D01*
X539390Y506370D02*
X549910Y516890D01*
X965200Y462280D02*
Y534221D01*
Y462280D02*
X977900Y449580D01*
X987420Y513080D02*
X997580Y502920D01*
X1109980Y508000D02*
Y519684D01*
X1128734Y538184D02*
X1140460Y526459D01*
X1125876Y579734D02*
X1140460Y565150D01*
X1128734Y538184D02*
X1140460Y549910D01*
Y565150D01*
X1129644Y579734D02*
X1140460Y590550D01*
X591820Y219710D02*
X646430D01*
X457200Y267970D02*
X492760D01*
X558800Y334010D01*
X1125876Y579734D02*
X1129644D01*
X1109980D02*
X1125876D01*
X1044287Y594360D02*
X1046328Y592319D01*
X1049211D01*
X1049710Y591820D01*
X657860Y228600D02*
X708660Y177800D01*
X723900Y191770D02*
X725962D01*
X732312Y198120D01*
X750150D01*
X527050Y109220D02*
Y120650D01*
X530860Y124460D02*
Y142240D01*
X527050Y120650D02*
X530860Y124460D01*
X525780Y137160D02*
X530860Y142240D01*
X472876Y137160D02*
X525780D01*
X530860Y142240D02*
Y153786D01*
X466764Y137756D02*
X472280D01*
X472876Y137160D01*
X464820Y139700D02*
X466764Y137756D01*
X581660Y241300D02*
X594360Y228600D01*
X657860D01*
X710438Y1177042D02*
Y1194308D01*
X722630Y1206500D02*
X791210D01*
X710438Y1194308D02*
X722630Y1206500D01*
X791210D02*
X805688Y1220978D01*
Y1232838D01*
Y1203452D02*
Y1220978D01*
Y1232838D02*
X806450Y1233600D01*
X805688Y1203452D02*
X808990Y1200150D01*
X844931Y1299210D02*
X965200D01*
X805688Y1259967D02*
X844931Y1299210D01*
X965200D02*
X983488Y1280922D01*
X805688Y1247902D02*
Y1259967D01*
Y1247902D02*
X806450Y1247140D01*
X735838Y1189228D02*
X742950Y1196340D01*
X782320D01*
X800100Y1178560D01*
X97790Y1625600D02*
X109220Y1614170D01*
X123084D01*
X97790Y1625600D02*
Y1634490D01*
X720090Y132080D02*
X732790Y144780D01*
X549910Y163322D02*
Y234950D01*
X444936Y332740D02*
X458050D01*
X353060Y256540D02*
Y278130D01*
X363220Y246380D02*
X375920D01*
X353060Y256540D02*
X363220Y246380D01*
X344170D02*
X363220D01*
X389460D02*
X402590D01*
X417517Y261307D02*
Y282774D01*
X402590Y246380D02*
X417517Y261307D01*
X417642Y288102D02*
X419100Y289560D01*
X417517Y282774D02*
X417642Y282900D01*
Y288102D01*
X353060Y278130D02*
X364137Y289207D01*
X393347D01*
X393700Y289560D01*
X414020Y481330D02*
Y553720D01*
X463550Y391160D02*
X487680D01*
X494030Y375920D02*
Y384810D01*
X487680Y391160D02*
X494030Y384810D01*
X488950Y370840D02*
X494030Y375920D01*
X471590Y370840D02*
X488950D01*
X439420Y364810D02*
X445450Y370840D01*
X440413D02*
X445450D01*
X458050D01*
X495300Y339619D02*
Y345440D01*
X476250Y351790D02*
X488950D01*
X495300Y345440D01*
X488421Y332740D02*
X495300Y339619D01*
X471590Y332740D02*
X488421D01*
X473435Y477666D02*
Y489945D01*
Y477666D02*
X478790Y472311D01*
Y471170D02*
Y472311D01*
X473160Y490220D02*
X473435Y489945D01*
X511810Y483870D02*
X523240Y472440D01*
X511810Y483870D02*
Y504190D01*
X523240Y472440D02*
X576144D01*
X496570Y519430D02*
X511810Y504190D01*
X520700Y350520D02*
Y388620D01*
Y402590D01*
X539296Y411386D02*
X539390Y411480D01*
X520700Y402590D02*
X529496Y411386D01*
X539296D01*
X965200Y534221D02*
X982159Y551180D01*
X1000300Y594360D02*
X1044287D01*
X690880Y1294130D02*
Y1310640D01*
X699582Y1319342D01*
Y1328232D01*
X701040Y1329690D01*
X110490Y1507490D02*
X350520D01*
X101600Y1516380D02*
Y1524834D01*
Y1516380D02*
X110490Y1507490D01*
X350520D02*
X371094Y1528064D01*
X101600Y1524834D02*
X109656Y1532890D01*
X101600Y1540946D02*
X109656Y1532890D01*
X101600Y1550234D02*
X109656Y1558290D01*
X101600Y1540946D02*
Y1550234D01*
X109656Y1532890D02*
X113030D01*
X101600Y1566346D02*
X109656Y1558290D01*
X101600Y1576667D02*
X111343Y1586410D01*
X101600Y1566346D02*
Y1576667D01*
X109656Y1558290D02*
X113030D01*
X123084D01*
X100330Y1597423D02*
Y1604010D01*
X108490Y1612170D01*
X100330Y1597423D02*
X111343Y1586410D01*
X97790Y1634490D02*
X102870Y1639570D01*
X97790Y1644650D02*
X102870Y1639570D01*
X97790Y1644650D02*
Y1658620D01*
X106680Y1639570D02*
X109220D01*
X102870D02*
X106680D01*
X162560Y1645920D02*
Y1656080D01*
X156210Y1639570D02*
X162560Y1645920D01*
X156210Y1639570D02*
X199136D01*
X137834D02*
X156210D01*
X311978Y1620962D02*
X320942D01*
X286278Y1646662D02*
X311978Y1620962D01*
X320942D02*
X323054Y1618850D01*
X246733Y301907D02*
X259080Y289560D01*
X322580Y298450D02*
Y318770D01*
X313690Y327660D02*
X322580Y318770D01*
X301350Y327660D02*
X313690D01*
X246380Y408940D02*
X282850D01*
X227330Y389890D02*
X246380Y408940D01*
X323850Y450850D02*
X342900Y431800D01*
X463550Y511810D02*
X486410D01*
X454660Y502920D02*
X463550Y511810D01*
X453390Y519430D02*
X496570D01*
X441960Y508000D02*
X453390Y519430D01*
X454660Y490220D02*
Y502920D01*
Y452120D02*
Y466090D01*
X441960Y478790D02*
Y508000D01*
Y478790D02*
X454660Y466090D01*
X557890Y411480D02*
X568524D01*
X579556Y422512D01*
X557890Y368300D02*
Y411480D01*
X567784Y450756D02*
X571500Y447040D01*
X557890Y452120D02*
X559254Y450756D01*
X567784D01*
X845820Y601980D02*
X992680D01*
X833120Y614680D02*
X845820Y601980D01*
X793750Y236220D02*
X825064D01*
X764420D02*
X793750D01*
X779780Y250190D02*
X793750Y236220D01*
X726694Y250190D02*
X779780D01*
X1070132Y576580D02*
X1086060Y560652D01*
X1068070Y576580D02*
X1070132D01*
X1099820Y695960D02*
X1100908Y694872D01*
Y683442D02*
Y694872D01*
X243840Y519430D02*
X251460Y511810D01*
X220980Y519430D02*
X243840D01*
X761238Y1273042D02*
Y1287018D01*
X673172Y1370330D02*
X676148Y1367354D01*
X653724Y1370330D02*
X673172D01*
X650748Y1367354D02*
X653724Y1370330D01*
X650748Y1351280D02*
Y1367354D01*
X676148Y1342898D02*
Y1367354D01*
X639992Y1368645D02*
X650567Y1379220D01*
X639992Y1359066D02*
Y1368645D01*
X698258Y1379220D02*
X723138Y1354340D01*
X650567Y1379220D02*
X698258D01*
X638048Y1357122D02*
X639992Y1359066D01*
X705612Y1386840D02*
X735838Y1356614D01*
X616966Y1386840D02*
X705612D01*
X587248Y1357122D02*
X616966Y1386840D01*
X446786Y1394460D02*
X719836D01*
X748538Y1365758D01*
X409448Y1357122D02*
X446786Y1394460D01*
X703580Y1303498D02*
Y1305560D01*
X710184Y1273296D02*
X710438Y1273042D01*
X703580Y1303498D02*
X710438Y1296640D01*
X659638Y1273042D02*
Y1290162D01*
X654588Y1295212D02*
X659638Y1290162D01*
X651698Y1295212D02*
X654588D01*
X650240Y1296670D02*
X651698Y1295212D01*
X679450Y1135380D02*
X697738Y1153668D01*
X618490Y1165280D02*
X648390Y1135380D01*
X679450D01*
X671830Y1150620D02*
X672084Y1150874D01*
Y1176788D01*
X672338Y1177042D01*
X697738Y1153668D02*
Y1177042D01*
X618490Y1165280D02*
Y1297940D01*
X808990Y1200150D02*
X808990D01*
X839978Y1169162D01*
X917448D01*
X164230Y1568850D02*
X178054D01*
X153670Y1558290D02*
X164230Y1568850D01*
X144780Y1558290D02*
X153670D01*
X371094Y1528064D02*
Y1543050D01*
X178054Y1593850D02*
X204470Y1567434D01*
X213480Y1537850D02*
X253054D01*
X204470Y1546860D02*
X213480Y1537850D01*
X204470Y1546860D02*
Y1567434D01*
X253054Y1649850D02*
X256242Y1646662D01*
X286278D01*
X663448Y1342898D02*
Y1357122D01*
X618490Y1297940D02*
X663448Y1342898D01*
X601980Y313690D02*
X615950D01*
X589280Y393700D02*
X608330Y412750D01*
X591820Y430530D02*
Y432592D01*
X600710Y441482D01*
X475520Y289560D02*
X539390Y353430D01*
X419100Y289560D02*
X475520D01*
X527050Y452120D02*
X539390D01*
X414020Y447040D02*
X437534D01*
X402590Y467360D02*
X427990D01*
X443230Y452120D02*
X454660D01*
X427990Y467360D02*
X443230Y452120D01*
X464820Y139700D02*
Y162560D01*
X713740Y368300D02*
X756920Y411480D01*
X697230Y368300D02*
X713740D01*
X739140Y436880D02*
X833120D01*
X615950Y313690D02*
X739140Y436880D01*
X670530Y132110D02*
X685770D01*
X685800Y132080D01*
X600710Y203200D02*
X612140D01*
X448310Y179070D02*
Y201930D01*
X465240Y218860D01*
X484290D01*
X448310Y179070D02*
X464820Y162560D01*
X301350Y408940D02*
X303530D01*
X327660D01*
X282850Y450850D02*
X283674Y450026D01*
X301350Y408940D02*
X301796Y409386D01*
Y420834D01*
X283674Y438956D02*
X301796Y420834D01*
X283674Y438956D02*
Y450026D01*
X342900Y419100D02*
Y431800D01*
X232960Y445220D02*
X268605Y409575D01*
X232960Y445220D02*
Y492760D01*
X251460D02*
Y511810D01*
X282850Y327660D02*
Y340000D01*
X289372Y346522D02*
X295722D01*
X282850Y340000D02*
X289372Y346522D01*
X324560Y349960D02*
X342900Y368300D01*
X324560Y339952D02*
Y349960D01*
X312533Y327926D02*
X324560Y339952D01*
X393137Y342900D02*
X421000D01*
X384247Y351790D02*
X393137Y342900D01*
X382270Y351790D02*
X384247D01*
X627380Y312420D02*
X650240D01*
X661670Y289560D02*
Y300990D01*
X650240Y312420D02*
X661670Y300990D01*
X608330Y412750D02*
Y477520D01*
X585470Y490220D02*
X600710Y474980D01*
Y441482D02*
Y474980D01*
X585906Y441780D02*
Y462678D01*
X576144Y472440D02*
X585906Y462678D01*
X579556Y422512D02*
Y435429D01*
X608330Y477520D02*
X623570Y492760D01*
X579556Y435429D02*
X585906Y441780D01*
X623570Y492760D02*
X640080D01*
X756920Y411480D02*
X833120D01*
X725606Y237490D02*
X748880D01*
X713740D02*
X725606D01*
X787400Y198120D02*
X803360D01*
X763690D02*
X787400D01*
X712216Y214630D02*
X770890D01*
X787400Y198120D01*
X855366Y197215D02*
X856824Y198673D01*
X840015Y197215D02*
X855366D01*
X805900Y195580D02*
X838381D01*
X840015Y197215D01*
X1109980Y538184D02*
X1128734D01*
X1035050Y751840D02*
X1087120D01*
X1098550Y763270D02*
Y775970D01*
X1087120Y751840D02*
X1098550Y763270D01*
X724535Y491490D02*
Y492125D01*
X803910Y571500D01*
X109220Y1639570D02*
X121543D01*
X124294D01*
X113030Y1586230D02*
X124294D01*
X151130D02*
X156210Y1591310D01*
X137834Y1586230D02*
X151130D01*
X156210Y1591310D02*
Y1614170D01*
X141584D02*
X158496D01*
X153670Y1558290D02*
X157480Y1554480D01*
X141584Y1558290D02*
X144780D01*
X137414Y1532890D02*
X138965Y1534441D01*
X113030Y1532890D02*
X123874D01*
X626110Y1292860D02*
X676148Y1342898D01*
X626110Y1270564D02*
Y1292860D01*
Y1270564D02*
X664977Y1231697D01*
X696778Y1273494D02*
X697484Y1272788D01*
X696778Y1273494D02*
Y1288232D01*
X690880Y1294130D02*
X696778Y1288232D01*
X672338Y1310132D02*
X687578Y1325372D01*
Y1362202D01*
X572770Y1329690D02*
X632460D01*
X672338Y1273042D02*
Y1310132D01*
X710438Y1273042D02*
Y1296640D01*
X484290Y218860D02*
X485140Y219710D01*
X640080Y509270D02*
Y543560D01*
Y492760D02*
Y509270D01*
X679450Y582930D02*
X708660D01*
X640080Y543560D02*
X679450Y582930D01*
X832328Y513872D02*
X833120Y513080D01*
X815818Y513872D02*
X832328D01*
X795020Y534670D02*
X815818Y513872D01*
X803910Y571500D02*
Y627380D01*
X557890Y490220D02*
X585470D01*
X816610Y640080D02*
X833120D01*
X803910Y627380D02*
X816610Y640080D01*
X1098550Y775970D02*
X1099820Y777240D01*
X1023620Y695960D02*
Y777240D01*
X259080Y368300D02*
X282850D01*
X240030Y349250D02*
X259080Y368300D01*
X238760Y349250D02*
X240030D01*
X301805Y368755D02*
Y388165D01*
X302260Y388620D01*
X327660Y408940D02*
X342900Y393700D01*
X301350Y368300D02*
X301805Y368755D01*
X825660Y235624D02*
X831176D01*
X825064Y236220D02*
X825660Y235624D01*
X831176D02*
X833120Y233680D01*
X691388Y285496D02*
X726694Y250190D01*
X739576Y223520D02*
X780396D01*
X725606Y237490D02*
X739576Y223520D01*
X748880Y237490D02*
X750150Y236220D01*
X780396Y223520D02*
X795636Y208280D01*
X641350Y285496D02*
X712216Y214630D01*
X795636Y208280D02*
X833120D01*
X803360Y198120D02*
X805900Y195580D01*
X382270Y179070D02*
X383540Y177800D01*
X382270Y179070D02*
Y200660D01*
X422910Y241300D02*
X502920D01*
X382270Y200660D02*
X422910Y241300D01*
X549910Y234950D02*
X581660Y266700D01*
X627380Y312420D01*
X1109186Y560652D02*
X1109874Y561340D01*
X992680Y601980D02*
X1000300Y594360D01*
X982159Y551180D02*
X1023620D01*
X1041400Y568960D01*
X1109874Y561340D02*
X1109980Y561234D01*
X1140460Y306490D02*
Y330200D01*
X1109980Y360680D02*
X1140460Y330200D01*
X987420Y208280D02*
X1013460D01*
X987420Y233680D02*
X1012190D01*
X661670Y289560D02*
X713740Y237490D01*
X539390Y490220D02*
Y506370D01*
X632460Y516890D02*
X640080Y509270D01*
X380365Y380365D02*
X430888D01*
X440413Y370840D01*
X421000Y393700D02*
X438780Y411480D01*
X455570D01*
X342900Y342900D02*
X380365Y380365D01*
X295722Y346522D02*
X297180Y347980D01*
X301350Y492760D02*
X301985Y493395D01*
X347345D01*
X347980Y494030D01*
X320040Y177800D02*
X321310Y179070D01*
Y223520D01*
X344170Y246380D01*
X251460Y492760D02*
X282850D01*
X158496Y1614170D02*
X163176Y1618850D01*
X178054D01*
X199136Y1639570D02*
X269856Y1568850D01*
X323054D01*
X983488Y1280922D02*
X993648Y1270762D01*
Y1169162D02*
Y1270762D01*
X723138Y1273042D02*
Y1354340D01*
X685038Y1177042D02*
Y1191574D01*
X664977Y1211636D02*
X685038Y1191574D01*
X664977Y1211636D02*
Y1231697D01*
X643890Y1344422D02*
X650748Y1351280D01*
X625348Y1344422D02*
X643890D01*
X612648Y1357122D02*
X625348Y1344422D01*
X735838Y1273042D02*
Y1356614D01*
X697484Y1272788D02*
X697738Y1273042D01*
X678434Y1224026D02*
X685038Y1230630D01*
Y1273042D01*
X748538D02*
Y1365758D01*
X659638Y1177042D02*
Y1197610D01*
X651764Y1205484D02*
X659638Y1197610D01*
X651764Y1205484D02*
Y1226312D01*
X723138Y1160780D02*
Y1177042D01*
Y1160780D02*
X736600Y1147318D01*
X921004D01*
X942848Y1169162D01*
X735838Y1177042D02*
Y1189228D01*
X323054Y1618850D02*
X348854Y1644650D01*
X371094D01*
D45*
X673100Y492760D02*
X680720Y500380D01*
Y544800D01*
X658580Y492760D02*
X673100D01*
X679450D01*
X659490Y449580D02*
X678180D01*
X684875Y456275D01*
Y487335D01*
X679450Y492760D02*
X684875Y487335D01*
X619760Y359410D02*
Y443590D01*
X640990Y449580D02*
Y449821D01*
X619760Y443590D02*
X626456Y450286D01*
X640525D02*
X640990Y449821D01*
X626456Y450286D02*
X640525D01*
X619760Y359410D02*
X709930Y449580D01*
Y542290D01*
X716280Y723900D02*
X756920Y683260D01*
X716280Y789940D02*
X743820Y817480D01*
X716280Y723900D02*
Y789940D01*
X743820Y817480D02*
X762000D01*
Y741680D02*
Y792480D01*
X756920Y708660D02*
Y736600D01*
X762000Y741680D01*
X530860Y270510D02*
X619760Y359410D01*
X530860Y199390D02*
Y270510D01*
X385986Y127000D02*
X411386Y152400D01*
X449580D01*
X383540Y127000D02*
X385986D01*
X494030Y162560D02*
X530860Y199390D01*
Y172286D02*
Y199390D01*
X645160Y721360D02*
Y759460D01*
Y721360D02*
X680720Y685800D01*
D46*
X535940Y664280D02*
X576650Y623570D01*
X535940Y741680D02*
X556260Y762000D01*
X535940Y664280D02*
Y741680D01*
X596900Y812800D02*
Y857250D01*
X557620Y874940D02*
X579210D01*
X596900Y857250D01*
X565150Y781050D02*
X596900Y812800D01*
X414020Y553720D02*
Y596900D01*
X383540Y627380D02*
Y629720D01*
Y627380D02*
X414020Y596900D01*
X267970Y822890D02*
Y891540D01*
X290830Y914400D02*
X352260D01*
X267970Y891540D02*
X290830Y914400D01*
X352260D02*
X383540Y883120D01*
X267970Y822890D02*
X308540Y782320D01*
X556260Y876300D02*
X557620Y874940D01*
X308540Y832720D02*
X333832Y858012D01*
X536448D01*
X556260Y838200D01*
X501650Y623570D02*
Y756920D01*
X525780Y781050D01*
X565150D01*
X273020Y553720D02*
Y594200D01*
X308540Y629720D01*
D47*
X1099820Y695960D02*
D03*
X917448Y1169162D02*
D03*
X1125220Y777240D02*
D03*
D48*
X556260Y876300D02*
D03*
X645160Y873760D02*
D03*
X383540Y177800D02*
D03*
D49*
X556260Y838200D02*
D03*
Y800100D02*
D03*
Y762000D02*
D03*
X645160Y835660D02*
D03*
Y797560D02*
D03*
Y759460D02*
D03*
X383540Y152400D02*
D03*
Y127000D02*
D03*
X243840Y177800D02*
D03*
Y152400D02*
D03*
X320040D02*
D03*
Y177800D02*
D03*
D50*
X833120Y640080D02*
D03*
X663448Y1357122D02*
D03*
X933488Y1280922D02*
D03*
D51*
X833120Y614680D02*
D03*
Y589280D02*
D03*
Y563880D02*
D03*
Y538480D02*
D03*
Y513080D02*
D03*
Y487680D02*
D03*
Y462280D02*
D03*
Y436880D02*
D03*
Y411480D02*
D03*
Y386080D02*
D03*
Y360680D02*
D03*
Y335280D02*
D03*
Y309880D02*
D03*
Y284480D02*
D03*
Y259080D02*
D03*
Y233680D02*
D03*
Y208280D02*
D03*
Y182880D02*
D03*
Y157480D02*
D03*
X987420D02*
D03*
Y182880D02*
D03*
Y208280D02*
D03*
Y233680D02*
D03*
Y259080D02*
D03*
Y284480D02*
D03*
Y309880D02*
D03*
Y335280D02*
D03*
Y360680D02*
D03*
Y386080D02*
D03*
Y411480D02*
D03*
Y436880D02*
D03*
Y462280D02*
D03*
Y487680D02*
D03*
Y513080D02*
D03*
Y538480D02*
D03*
Y563880D02*
D03*
Y589280D02*
D03*
Y614680D02*
D03*
Y640080D02*
D03*
X152400Y463550D02*
D03*
X167640Y450850D02*
D03*
X152400Y438150D02*
D03*
X384048Y1357122D02*
D03*
X409448D02*
D03*
X434848D02*
D03*
X460248D02*
D03*
X485648D02*
D03*
X511048D02*
D03*
X536448D02*
D03*
X561848D02*
D03*
X587248D02*
D03*
X612648D02*
D03*
X638048D02*
D03*
X449580Y127000D02*
D03*
X464820Y139700D02*
D03*
X449580Y152400D02*
D03*
X485140Y194310D02*
D03*
X500380Y207010D02*
D03*
X485140Y219710D02*
D03*
X983488Y1280922D02*
D03*
X922020Y788200D02*
D03*
D52*
X92710Y982980D02*
D03*
X1137920Y908050D02*
D03*
Y78740D02*
D03*
X274320D02*
D03*
X1064260Y1376680D02*
D03*
Y1198880D02*
D03*
X73660D02*
D03*
Y1376680D02*
D03*
D53*
X91440Y568960D02*
D03*
X90170Y351790D02*
D03*
X91440Y66040D02*
D03*
X88900Y861060D02*
D03*
D54*
X91440Y645160D02*
D03*
X90170Y275590D02*
D03*
X91440Y142240D02*
D03*
X88900Y784860D02*
D03*
X576650Y623570D02*
D03*
D55*
X501650D02*
D03*
D56*
X680720Y544800D02*
D03*
X1109980Y253680D02*
D03*
D57*
X680720Y685800D02*
D03*
X421000Y419100D02*
D03*
Y393700D02*
D03*
Y368300D02*
D03*
Y342900D02*
D03*
X342900D02*
D03*
Y368300D02*
D03*
Y393700D02*
D03*
X1109980Y360680D02*
D03*
X273020Y553720D02*
D03*
D58*
X513080Y95250D02*
D03*
X527050Y109220D02*
D03*
X513080Y123190D02*
D03*
D59*
X383540Y629720D02*
D03*
Y782320D02*
D03*
Y832720D02*
D03*
Y883120D02*
D03*
X308540D02*
D03*
Y832720D02*
D03*
Y782320D02*
D03*
Y629720D02*
D03*
D60*
X691388Y285496D02*
D03*
X641350D02*
D03*
D61*
X762000Y843480D02*
D03*
Y817480D02*
D03*
Y792480D02*
D03*
D62*
X342900Y419100D02*
D03*
X414020Y553720D02*
D03*
D63*
X393700Y289560D02*
D03*
X419100D02*
D03*
X581660Y266700D02*
D03*
Y241300D02*
D03*
X756920Y683260D02*
D03*
Y708660D02*
D03*
X281940Y308610D02*
D03*
X260350Y269240D02*
D03*
X1083310Y525272D02*
D03*
X1088390Y292100D02*
D03*
X1013491Y334998D02*
D03*
X1014730Y359410D02*
D03*
X243840Y303530D02*
D03*
X709930Y542290D02*
D03*
X579120Y207010D02*
D03*
X457200Y267970D02*
D03*
X723900Y191770D02*
D03*
X414020Y481330D02*
D03*
X476250Y351790D02*
D03*
X478790Y471170D02*
D03*
X323850Y424180D02*
D03*
X1068070Y576580D02*
D03*
X703580Y1305560D02*
D03*
X701040Y1329690D02*
D03*
X650240Y1296670D02*
D03*
X671830Y1150620D02*
D03*
X601980Y313690D02*
D03*
X589280Y393700D02*
D03*
X580390Y347980D02*
D03*
X591820Y430530D02*
D03*
X558800Y334010D02*
D03*
X557530Y430530D02*
D03*
X414020Y447040D02*
D03*
X402590Y467360D02*
D03*
X697230Y368300D02*
D03*
X720090Y132080D02*
D03*
X685800D02*
D03*
X600710Y203200D02*
D03*
X494030Y162560D02*
D03*
X275590Y226060D02*
D03*
X227330Y389890D02*
D03*
X382270Y351790D02*
D03*
X520700Y388620D02*
D03*
X856824Y198673D02*
D03*
X724535Y491490D02*
D03*
X800100Y1178560D02*
D03*
X632460Y1329690D02*
D03*
X572770D02*
D03*
X708660Y582930D02*
D03*
X795020Y534670D02*
D03*
X1035050Y751840D02*
D03*
X238760Y349250D02*
D03*
X302260Y388620D02*
D03*
X502920Y241300D02*
D03*
X463550Y391160D02*
D03*
X297180Y347980D02*
D03*
X347980Y494030D02*
D03*
X678434Y1224026D02*
D03*
X687578Y1362202D02*
D03*
X651764Y1226312D02*
D03*
D64*
X922020Y838200D02*
D03*
M02*
