G04*
G04 #@! TF.GenerationSoftware,Altium Limited,Altium Designer,23.4.1 (23)*
G04*
G04 Layer_Color=65535*
%FSLAX44Y44*%
%MOMM*%
G71*
G04*
G04 #@! TF.SameCoordinates,2680DE8E-D3BC-4794-95DD-0B2387E44050*
G04*
G04*
G04 #@! TF.FilePolarity,Positive*
G04*
G01*
G75*
%ADD10C,0.1000*%
%ADD11C,0.2000*%
%ADD12C,0.4000*%
%ADD13C,0.2540*%
%ADD14C,0.3000*%
D10*
X137118Y429815D02*
G03*
X137081Y471858I15282J21035D01*
G01*
X500844Y83575D02*
G03*
X501616Y135641I9913J25892D01*
G01*
X506730Y78010D02*
G03*
X506730Y79010I0J500D01*
G01*
D02*
G03*
X506730Y78010I0J-500D01*
G01*
X434298Y118666D02*
G03*
X434261Y160708I15282J21035D01*
G01*
X469858Y185975D02*
G03*
X469821Y228018I15282J21035D01*
G01*
X137100Y429828D02*
Y471872D01*
X619760Y55880D02*
Y106680D01*
Y55880D02*
X1094740D01*
Y106680D01*
X619760D02*
X1094740D01*
X500844Y83575D02*
Y135492D01*
X434280Y118678D02*
Y160722D01*
X469840Y185988D02*
Y228032D01*
X818000Y762980D02*
Y871980D01*
X725000Y762980D02*
X818000D01*
X725000D02*
Y871980D01*
X818000D01*
X459740Y1457960D02*
Y1691640D01*
X338840Y133600D02*
Y196600D01*
X225040Y133600D02*
X338840D01*
X225040D02*
Y196600D01*
X338840D01*
D11*
X631650Y623570D02*
G03*
X631650Y623570I-92500J0D01*
G01*
X1010988Y1280922D02*
G03*
X1010988Y1280922I-52500J0D01*
G01*
X974520Y813200D02*
G03*
X974520Y813200I-52500J0D01*
G01*
X238760Y212852D02*
G03*
X238760Y214852I0J1000D01*
G01*
D02*
G03*
X238760Y212852I0J-1000D01*
G01*
X788416Y441960D02*
Y497840D01*
X760476Y441960D02*
X788416D01*
X760476D02*
Y497840D01*
X788416D01*
X827200Y664840D02*
X983930D01*
X836610Y132720D02*
X983930D01*
X1055370Y556260D02*
Y632460D01*
X1027430Y556260D02*
X1055370D01*
X1027430Y632460D02*
X1055370D01*
X1027430Y556260D02*
Y632460D01*
Y424180D02*
Y500380D01*
X1055370D01*
X1027430Y424180D02*
X1055370D01*
Y500380D01*
X1096010Y129540D02*
Y205740D01*
X1123950D01*
X1096010Y129540D02*
X1123950D01*
Y205740D01*
X368590Y99700D02*
X415490D01*
Y205100D01*
X383540D02*
X415490D01*
X668970Y592050D02*
Y638550D01*
X692470D01*
Y592050D02*
Y638550D01*
X668970Y592050D02*
X692470D01*
X668970Y603800D02*
X680720Y592050D01*
Y557500D02*
Y592050D01*
Y638550D02*
Y671800D01*
X282540Y606220D02*
Y900230D01*
X409540D01*
Y606220D02*
Y900230D01*
X282540Y606220D02*
X409540D01*
X346390Y330200D02*
X417510D01*
X346390Y431800D02*
X417510D01*
X1109980Y326200D02*
Y348930D01*
Y265110D02*
Y288160D01*
X1101380Y296760D02*
X1109980Y288160D01*
X1101380D02*
X1118580D01*
Y326200D01*
X1101380D02*
X1118580D01*
X1101380Y288160D02*
Y326200D01*
X320270Y541970D02*
X366770D01*
X320270D02*
Y565470D01*
X366770D01*
Y541970D02*
Y565470D01*
X355020Y541970D02*
X366770Y553720D01*
X401320D01*
X287020D02*
X320270D01*
X770128Y1264412D02*
Y1283412D01*
X735838Y1192022D02*
X767588D01*
X640588D02*
X672338D01*
X735838Y1258062D02*
X767588D01*
X640588D02*
X672338D01*
X735838D01*
X640588Y1192022D02*
Y1258062D01*
X672338Y1192022D02*
X735838D01*
X767588D02*
Y1258062D01*
D12*
X391749Y587810D02*
G03*
X391749Y587810I-1259J0D01*
G01*
D13*
X710464Y285750D02*
G03*
X710464Y285750I-43968J0D01*
G01*
X433100Y289560D02*
G03*
X433100Y289560I-26700J0D01*
G01*
X608360Y254000D02*
G03*
X608360Y254000I-26700J0D01*
G01*
X783620Y695960D02*
G03*
X783620Y695960I-26700J0D01*
G01*
X1009650Y681990D02*
Y709930D01*
Y681990D02*
X1113790D01*
X1009650Y709930D02*
X1113790D01*
Y681990D02*
Y709930D01*
X1027430Y179070D02*
Y283210D01*
Y179070D02*
X1055370D01*
X1027430Y283210D02*
X1055370D01*
Y179070D02*
Y283210D01*
X1027430Y302260D02*
Y383540D01*
Y302260D02*
X1079500D01*
X1027430Y383540D02*
X1079500D01*
Y302260D02*
Y383540D01*
X903478Y1155192D02*
Y1183132D01*
Y1155192D02*
X1007618D01*
X903478Y1183132D02*
X1007618D01*
Y1155192D02*
Y1183132D01*
X760730Y270510D02*
X788670D01*
Y400050D01*
X760730D02*
X788670D01*
X760730Y270510D02*
Y400050D01*
X572770Y746760D02*
Y892810D01*
X539750Y746760D02*
X572770D01*
X539750D02*
Y892810D01*
X572770D01*
X661670Y744220D02*
Y890270D01*
X628650Y744220D02*
X661670D01*
X628650D02*
Y890270D01*
X661670D01*
X1139190Y763270D02*
Y791210D01*
X1009650D02*
X1139190D01*
X1009650Y763270D02*
Y791210D01*
Y763270D02*
X1139190D01*
X12700Y519430D02*
X77470D01*
X11430Y634048D02*
Y694690D01*
Y520700D02*
Y577533D01*
X77470Y519430D02*
X170180D01*
Y694690D02*
X170180Y519430D01*
X51118Y694690D02*
X130492D01*
X11430Y577533D02*
Y634048D01*
Y520700D02*
X12700Y519430D01*
X130492Y694690D02*
X170180D01*
X11430D02*
X51118D01*
X104140Y401320D02*
X168910D01*
X170180Y226060D02*
Y286702D01*
Y343218D02*
Y400050D01*
X11430Y401320D02*
X104140D01*
X11430D02*
X11430Y226060D01*
X51118D02*
X130492D01*
X170180Y286702D02*
Y343218D01*
X168910Y401320D02*
X170180Y400050D01*
X11430Y226060D02*
X51118D01*
X130492D02*
X170180D01*
X12700Y16510D02*
X77470D01*
X11430Y131128D02*
Y191770D01*
Y17780D02*
Y74612D01*
X77470Y16510D02*
X170180D01*
Y191770D02*
X170180Y16510D01*
X51118Y191770D02*
X130492D01*
X11430Y74612D02*
Y131128D01*
Y17780D02*
X12700Y16510D01*
X130492Y191770D02*
X170180D01*
X11430D02*
X51118D01*
X102870Y910590D02*
X167640D01*
X168910Y735330D02*
Y795973D01*
Y852487D02*
Y909320D01*
X10160Y910590D02*
X102870D01*
X10160D02*
X10160Y735330D01*
X49847D02*
X129222D01*
X168910Y795973D02*
Y852487D01*
X167640Y910590D02*
X168910Y909320D01*
X10160Y735330D02*
X49847D01*
X129222D02*
X168910D01*
X492760Y651510D02*
X510540D01*
X501650Y642620D02*
Y660400D01*
X357124Y1529080D02*
Y1658620D01*
X385064D01*
Y1529080D02*
Y1658620D01*
X357124Y1529080D02*
X385064D01*
X927138Y1301242D02*
X939838D01*
X933488Y1294892D02*
Y1307592D01*
X434340Y276860D02*
X444500D01*
X439420Y271780D02*
Y281940D01*
X568960Y215900D02*
Y226060D01*
X563880Y220980D02*
X574040D01*
X769620Y723900D02*
Y734060D01*
X764540Y728980D02*
X774700D01*
X942340Y831850D02*
Y844550D01*
X935990Y838200D02*
X948690D01*
X5080Y1457960D02*
X1221740Y1457960D01*
X1270Y1078230D02*
X1220470D01*
X624840Y76195D02*
Y60960D01*
X632458D01*
X634997Y63499D01*
Y73656D01*
X632458Y76195D01*
X624840D01*
X642614Y71117D02*
X647693D01*
X650232Y68577D01*
Y60960D01*
X642614D01*
X640075Y63499D01*
X642614Y66038D01*
X650232D01*
X657849Y73656D02*
Y71117D01*
X655310D01*
X660388D01*
X657849D01*
Y63499D01*
X660388Y60960D01*
X675624D02*
X670545D01*
X668006Y63499D01*
Y68577D01*
X670545Y71117D01*
X675624D01*
X678163Y68577D01*
Y66038D01*
X668006D01*
X683241Y71117D02*
X685780D01*
Y68577D01*
X683241D01*
Y71117D01*
Y63499D02*
X685780D01*
Y60960D01*
X683241D01*
Y63499D01*
X721329Y60960D02*
X711172D01*
X721329Y71117D01*
Y73656D01*
X718790Y76195D01*
X713711D01*
X711172Y73656D01*
X726407D02*
X728946Y76195D01*
X734025D01*
X736564Y73656D01*
Y63499D01*
X734025Y60960D01*
X728946D01*
X726407Y63499D01*
Y73656D01*
X751799Y60960D02*
X741642D01*
X751799Y71117D01*
Y73656D01*
X749260Y76195D01*
X744181D01*
X741642Y73656D01*
X756877D02*
X759417Y76195D01*
X764495D01*
X767034Y73656D01*
Y71117D01*
X764495Y68577D01*
X761956D01*
X764495D01*
X767034Y66038D01*
Y63499D01*
X764495Y60960D01*
X759417D01*
X756877Y63499D01*
X634997Y99054D02*
X632458Y101593D01*
X627379D01*
X624840Y99054D01*
Y96515D01*
X627379Y93976D01*
X632458D01*
X634997Y91437D01*
Y88897D01*
X632458Y86358D01*
X627379D01*
X624840Y88897D01*
X642614Y86358D02*
X647693D01*
X650232Y88897D01*
Y93976D01*
X647693Y96515D01*
X642614D01*
X640075Y93976D01*
Y88897D01*
X642614Y86358D01*
X655310D02*
X660388D01*
X657849D01*
Y101593D01*
X655310D01*
X678163D02*
Y86358D01*
X670545D01*
X668006Y88897D01*
Y93976D01*
X670545Y96515D01*
X678163D01*
X690859Y86358D02*
X685780D01*
X683241Y88897D01*
Y93976D01*
X685780Y96515D01*
X690859D01*
X693398Y93976D01*
Y91437D01*
X683241D01*
X698476Y96515D02*
Y86358D01*
Y91437D01*
X701015Y93976D01*
X703555Y96515D01*
X706094D01*
X713711Y86358D02*
X718790D01*
X716250D01*
Y96515D01*
X713711D01*
X726407Y86358D02*
Y96515D01*
X734025D01*
X736564Y93976D01*
Y86358D01*
X746721Y81280D02*
X749260D01*
X751799Y83819D01*
Y96515D01*
X744181D01*
X741642Y93976D01*
Y88897D01*
X744181Y86358D01*
X751799D01*
X756877D02*
X764495D01*
X767034Y88897D01*
X764495Y91437D01*
X759417D01*
X756877Y93976D01*
X759417Y96515D01*
X767034D01*
X774651Y99054D02*
Y96515D01*
X772112D01*
X777191D01*
X774651D01*
Y88897D01*
X777191Y86358D01*
X787347Y96515D02*
X792426D01*
X794965Y93976D01*
Y86358D01*
X787347D01*
X784808Y88897D01*
X787347Y91437D01*
X794965D01*
X802582Y99054D02*
Y96515D01*
X800043D01*
X805122D01*
X802582D01*
Y88897D01*
X805122Y86358D01*
X812739D02*
X817818D01*
X815278D01*
Y96515D01*
X812739D01*
X827974Y86358D02*
X833053D01*
X835592Y88897D01*
Y93976D01*
X833053Y96515D01*
X827974D01*
X825435Y93976D01*
Y88897D01*
X827974Y86358D01*
X840670D02*
Y96515D01*
X848288D01*
X850827Y93976D01*
Y86358D01*
X871140Y101593D02*
Y86358D01*
X878758D01*
X881297Y88897D01*
Y91437D01*
Y93976D01*
X878758Y96515D01*
X871140D01*
X886375D02*
Y88897D01*
X888915Y86358D01*
X896532D01*
Y83819D01*
X893993Y81280D01*
X891454D01*
X896532Y86358D02*
Y96515D01*
X916845Y86358D02*
Y96515D01*
X921924Y101593D01*
X927002Y96515D01*
Y86358D01*
Y93976D01*
X916845D01*
X939698Y86358D02*
X934620D01*
X932081Y88897D01*
Y93976D01*
X934620Y96515D01*
X939698D01*
X942237Y93976D01*
Y91437D01*
X932081D01*
X947316Y96515D02*
Y86358D01*
Y91437D01*
X949855Y93976D01*
X952394Y96515D01*
X954933D01*
X965090Y99054D02*
Y96515D01*
X962551D01*
X967629D01*
X965090D01*
Y88897D01*
X967629Y86358D01*
X975247D02*
X982864D01*
X985403Y88897D01*
X982864Y91437D01*
X977786D01*
X975247Y93976D01*
X977786Y96515D01*
X985403D01*
X1005717Y101593D02*
X1015873Y86358D01*
Y101593D02*
X1005717Y86358D01*
X1023491Y96515D02*
X1028569D01*
X1031109Y93976D01*
Y86358D01*
X1023491D01*
X1020952Y88897D01*
X1023491Y91437D01*
X1031109D01*
X1036187Y86358D02*
Y96515D01*
X1043804D01*
X1046344Y93976D01*
Y86358D01*
X1061579Y101593D02*
Y86358D01*
X1053961D01*
X1051422Y88897D01*
Y93976D01*
X1053961Y96515D01*
X1061579D01*
X1074275Y86358D02*
X1069196D01*
X1066657Y88897D01*
Y93976D01*
X1069196Y96515D01*
X1074275D01*
X1076814Y93976D01*
Y91437D01*
X1066657D01*
X1081892Y96515D02*
Y86358D01*
Y91437D01*
X1084431Y93976D01*
X1086971Y96515D01*
X1089510D01*
X295919Y1678938D02*
X306075D01*
X300997D01*
Y1663703D01*
X311154Y1678938D02*
Y1663703D01*
X318771D01*
X321310Y1666242D01*
Y1668781D01*
X318771Y1671320D01*
X311154D01*
X318771D01*
X321310Y1673859D01*
Y1676398D01*
X318771Y1678938D01*
X311154D01*
X326389Y1663703D02*
X331467D01*
X328928D01*
Y1678938D01*
X326389Y1676398D01*
X349241Y1663703D02*
X339085D01*
X349241Y1673859D01*
Y1676398D01*
X346702Y1678938D01*
X341624D01*
X339085Y1676398D01*
X878086Y1212339D02*
X888242D01*
X883164D01*
Y1197104D01*
X893321Y1212339D02*
Y1197104D01*
X900938D01*
X903478Y1199644D01*
Y1202183D01*
X900938Y1204722D01*
X893321D01*
X900938D01*
X903478Y1207261D01*
Y1209800D01*
X900938Y1212339D01*
X893321D01*
X908556Y1197104D02*
X913634D01*
X911095D01*
Y1212339D01*
X908556Y1209800D01*
X921252Y1197104D02*
X926330D01*
X923791D01*
Y1212339D01*
X921252Y1209800D01*
X67317Y1658114D02*
Y1673349D01*
X74934D01*
X77473Y1670810D01*
Y1665732D01*
X74934Y1663193D01*
X67317D01*
X72395D02*
X77473Y1658114D01*
X92708D02*
X82552D01*
X92708Y1668271D01*
Y1670810D01*
X90169Y1673349D01*
X85091D01*
X82552Y1670810D01*
X97787D02*
X100326Y1673349D01*
X105404D01*
X107943Y1670810D01*
Y1668271D01*
X105404Y1665732D01*
X102865D01*
X105404D01*
X107943Y1663193D01*
Y1660654D01*
X105404Y1658114D01*
X100326D01*
X97787Y1660654D01*
X67317Y1606044D02*
Y1621279D01*
X74934D01*
X77473Y1618740D01*
Y1613662D01*
X74934Y1611123D01*
X67317D01*
X72395D02*
X77473Y1606044D01*
X92708D02*
X82552D01*
X92708Y1616201D01*
Y1618740D01*
X90169Y1621279D01*
X85091D01*
X82552Y1618740D01*
X107943Y1606044D02*
X97787D01*
X107943Y1616201D01*
Y1618740D01*
X105404Y1621279D01*
X100326D01*
X97787Y1618740D01*
X68586Y1551181D02*
Y1566416D01*
X76203D01*
X78742Y1563876D01*
Y1558798D01*
X76203Y1556259D01*
X68586D01*
X73664D02*
X78742Y1551181D01*
X93978D02*
X83821D01*
X93978Y1561337D01*
Y1563876D01*
X91438Y1566416D01*
X86360D01*
X83821Y1563876D01*
X99056Y1551181D02*
X104134D01*
X101595D01*
Y1566416D01*
X99056Y1563876D01*
X589286Y1202688D02*
X594365D01*
X591825D01*
Y1187452D01*
X589286D01*
X594365D01*
X612139Y1200148D02*
X609600Y1202688D01*
X604521D01*
X601982Y1200148D01*
Y1189992D01*
X604521Y1187452D01*
X609600D01*
X612139Y1189992D01*
X627374Y1202688D02*
X617217D01*
Y1195070D01*
X622295Y1197609D01*
X624835D01*
X627374Y1195070D01*
Y1189992D01*
X624835Y1187452D01*
X619756D01*
X617217Y1189992D01*
X979681Y1357120D02*
X977142Y1359659D01*
X972063D01*
X969524Y1357120D01*
Y1346964D01*
X972063Y1344424D01*
X977142D01*
X979681Y1346964D01*
X984759Y1344424D02*
X989838D01*
X987298D01*
Y1359659D01*
X984759Y1357120D01*
X997455Y1346964D02*
X999994Y1344424D01*
X1005073D01*
X1007612Y1346964D01*
Y1357120D01*
X1005073Y1359659D01*
X999994D01*
X997455Y1357120D01*
Y1354581D01*
X999994Y1352042D01*
X1007612D01*
X800103Y1277364D02*
X797564Y1279903D01*
X792485D01*
X789946Y1277364D01*
Y1267208D01*
X792485Y1264669D01*
X797564D01*
X800103Y1267208D01*
X805181Y1264669D02*
X810260D01*
X807720D01*
Y1279903D01*
X805181Y1277364D01*
X817877D02*
X820416Y1279903D01*
X825495D01*
X828034Y1277364D01*
Y1274825D01*
X825495Y1272286D01*
X828034Y1269747D01*
Y1267208D01*
X825495Y1264669D01*
X820416D01*
X817877Y1267208D01*
Y1269747D01*
X820416Y1272286D01*
X817877Y1274825D01*
Y1277364D01*
X820416Y1272286D02*
X825495D01*
X77473Y1644648D02*
X74934Y1647188D01*
X69855D01*
X67316Y1644648D01*
Y1634492D01*
X69855Y1631953D01*
X74934D01*
X77473Y1634492D01*
X82551Y1631953D02*
X87630D01*
X85090D01*
Y1647188D01*
X82551Y1644648D01*
X95247Y1647188D02*
X105404D01*
Y1644648D01*
X95247Y1634492D01*
Y1631953D01*
X78743Y1537460D02*
X76204Y1540000D01*
X71125D01*
X68586Y1537460D01*
Y1527304D01*
X71125Y1524765D01*
X76204D01*
X78743Y1527304D01*
X83821Y1524765D02*
X88900D01*
X86360D01*
Y1540000D01*
X83821Y1537460D01*
X106674Y1540000D02*
X96517D01*
Y1532382D01*
X101595Y1534921D01*
X104135D01*
X106674Y1532382D01*
Y1527304D01*
X104135Y1524765D01*
X99056D01*
X96517Y1527304D01*
X667766Y717291D02*
X677923D01*
Y714752D01*
X667766Y704595D01*
Y702056D01*
X677923D01*
X683001Y717291D02*
Y702056D01*
X690619D01*
X693158Y704595D01*
Y714752D01*
X690619Y717291D01*
X683001D01*
X698236Y702056D02*
X703315D01*
X700775D01*
Y717291D01*
X698236Y714752D01*
X1009659Y731517D02*
X1019815D01*
X1014737D01*
Y716283D01*
X1024894Y731517D02*
Y716283D01*
X1032511D01*
X1035050Y718822D01*
Y721361D01*
X1032511Y723900D01*
X1024894D01*
X1032511D01*
X1035050Y726439D01*
Y728978D01*
X1032511Y731517D01*
X1024894D01*
X1040129Y716283D02*
X1045207D01*
X1042668D01*
Y731517D01*
X1040129Y728978D01*
X1062981Y731517D02*
X1052825D01*
Y723900D01*
X1057903Y726439D01*
X1060442D01*
X1062981Y723900D01*
Y718822D01*
X1060442Y716283D01*
X1055364D01*
X1052825Y718822D01*
X1009659Y814068D02*
X1019815D01*
X1014737D01*
Y798832D01*
X1024894Y814068D02*
Y798832D01*
X1032511D01*
X1035050Y801372D01*
Y803911D01*
X1032511Y806450D01*
X1024894D01*
X1032511D01*
X1035050Y808989D01*
Y811528D01*
X1032511Y814068D01*
X1024894D01*
X1040129Y798832D02*
X1045207D01*
X1042668D01*
Y814068D01*
X1040129Y811528D01*
X1060442Y798832D02*
Y814068D01*
X1052825Y806450D01*
X1062981D01*
X12700Y425445D02*
X22857D01*
X17778D01*
Y410210D01*
X27935Y425445D02*
Y410210D01*
X35553D01*
X38092Y412749D01*
Y415288D01*
X35553Y417827D01*
X27935D01*
X35553D01*
X38092Y420367D01*
Y422906D01*
X35553Y425445D01*
X27935D01*
X43170Y410210D02*
X48249D01*
X45709D01*
Y425445D01*
X43170Y422906D01*
X55866D02*
X58405Y425445D01*
X63484D01*
X66023Y422906D01*
Y420367D01*
X63484Y417827D01*
X60944D01*
X63484D01*
X66023Y415288D01*
Y412749D01*
X63484Y410210D01*
X58405D01*
X55866Y412749D01*
X12700Y215895D02*
X22857D01*
X17778D01*
Y200660D01*
X27935Y215895D02*
Y200660D01*
X35553D01*
X38092Y203199D01*
Y205738D01*
X35553Y208277D01*
X27935D01*
X35553D01*
X38092Y210817D01*
Y213356D01*
X35553Y215895D01*
X27935D01*
X43170Y200660D02*
X48249D01*
X45709D01*
Y215895D01*
X43170Y213356D01*
X55866D02*
X58405Y215895D01*
X63484D01*
X66023Y213356D01*
Y203199D01*
X63484Y200660D01*
X58405D01*
X55866Y203199D01*
Y213356D01*
X1027437Y524507D02*
X1037593D01*
X1032515D01*
Y509272D01*
X1042672Y524507D02*
Y509272D01*
X1050289D01*
X1052828Y511812D01*
Y514351D01*
X1050289Y516890D01*
X1042672D01*
X1050289D01*
X1052828Y519429D01*
Y521968D01*
X1050289Y524507D01*
X1042672D01*
X1057907Y511812D02*
X1060446Y509272D01*
X1065524D01*
X1068063Y511812D01*
Y521968D01*
X1065524Y524507D01*
X1060446D01*
X1057907Y521968D01*
Y519429D01*
X1060446Y516890D01*
X1068063D01*
X760991Y422654D02*
X771147D01*
X766069D01*
Y407419D01*
X776226Y422654D02*
Y407419D01*
X783843D01*
X786382Y409958D01*
Y412497D01*
X783843Y415036D01*
X776226D01*
X783843D01*
X786382Y417575D01*
Y420114D01*
X783843Y422654D01*
X776226D01*
X791461Y420114D02*
X794000Y422654D01*
X799078D01*
X801617Y420114D01*
Y417575D01*
X799078Y415036D01*
X801617Y412497D01*
Y409958D01*
X799078Y407419D01*
X794000D01*
X791461Y409958D01*
Y412497D01*
X794000Y415036D01*
X791461Y417575D01*
Y420114D01*
X794000Y415036D02*
X799078D01*
X1027437Y407668D02*
X1037593D01*
X1032515D01*
Y392433D01*
X1042672Y407668D02*
Y392433D01*
X1050289D01*
X1052828Y394972D01*
Y397511D01*
X1050289Y400050D01*
X1042672D01*
X1050289D01*
X1052828Y402589D01*
Y405128D01*
X1050289Y407668D01*
X1042672D01*
X1057907D02*
X1068063D01*
Y405128D01*
X1057907Y394972D01*
Y392433D01*
X1027437Y172717D02*
X1037593D01*
X1032515D01*
Y157483D01*
X1042672Y172717D02*
Y157483D01*
X1050289D01*
X1052828Y160022D01*
Y162561D01*
X1050289Y165100D01*
X1042672D01*
X1050289D01*
X1052828Y167639D01*
Y170178D01*
X1050289Y172717D01*
X1042672D01*
X1068063D02*
X1062985Y170178D01*
X1057907Y165100D01*
Y160022D01*
X1060446Y157483D01*
X1065524D01*
X1068063Y160022D01*
Y162561D01*
X1065524Y165100D01*
X1057907D01*
X760737Y521713D02*
X770893D01*
X765815D01*
Y506479D01*
X775972Y521713D02*
Y506479D01*
X783589D01*
X786128Y509018D01*
Y511557D01*
X783589Y514096D01*
X775972D01*
X783589D01*
X786128Y516635D01*
Y519174D01*
X783589Y521713D01*
X775972D01*
X801363D02*
X791207D01*
Y514096D01*
X796285Y516635D01*
X798824D01*
X801363Y514096D01*
Y509018D01*
X798824Y506479D01*
X793746D01*
X791207Y509018D01*
X1027437Y654047D02*
X1037593D01*
X1032515D01*
Y638812D01*
X1042672Y654047D02*
Y638812D01*
X1050289D01*
X1052828Y641352D01*
Y643891D01*
X1050289Y646430D01*
X1042672D01*
X1050289D01*
X1052828Y648969D01*
Y651508D01*
X1050289Y654047D01*
X1042672D01*
X1065524Y638812D02*
Y654047D01*
X1057907Y646430D01*
X1068063D01*
X1096017Y227327D02*
X1106173D01*
X1101095D01*
Y212092D01*
X1111252Y227327D02*
Y212092D01*
X1118869D01*
X1121408Y214632D01*
Y217171D01*
X1118869Y219710D01*
X1111252D01*
X1118869D01*
X1121408Y222249D01*
Y224788D01*
X1118869Y227327D01*
X1111252D01*
X1126487Y224788D02*
X1129026Y227327D01*
X1134104D01*
X1136643Y224788D01*
Y222249D01*
X1134104Y219710D01*
X1131565D01*
X1134104D01*
X1136643Y217171D01*
Y214632D01*
X1134104Y212092D01*
X1129026D01*
X1126487Y214632D01*
X12707Y718818D02*
X22863D01*
X17785D01*
Y703583D01*
X27942Y718818D02*
Y703583D01*
X35559D01*
X38098Y706122D01*
Y708661D01*
X35559Y711200D01*
X27942D01*
X35559D01*
X38098Y713739D01*
Y716278D01*
X35559Y718818D01*
X27942D01*
X53333Y703583D02*
X43177D01*
X53333Y713739D01*
Y716278D01*
X50794Y718818D01*
X45716D01*
X43177Y716278D01*
X11430Y934715D02*
X21587D01*
X16508D01*
Y919480D01*
X26665Y934715D02*
Y919480D01*
X34283D01*
X36822Y922019D01*
Y924558D01*
X34283Y927097D01*
X26665D01*
X34283D01*
X36822Y929637D01*
Y932176D01*
X34283Y934715D01*
X26665D01*
X41900Y919480D02*
X46979D01*
X44439D01*
Y934715D01*
X41900Y932176D01*
X102874Y468628D02*
X113031D01*
X107952D01*
Y453392D01*
X128266Y468628D02*
X118109D01*
Y461010D01*
X123188Y463549D01*
X125727D01*
X128266Y461010D01*
Y455932D01*
X125727Y453392D01*
X120648D01*
X118109Y455932D01*
X368304Y227327D02*
X378461D01*
X373382D01*
Y212092D01*
X391157D02*
Y227327D01*
X383539Y219710D01*
X393696D01*
X551184Y91438D02*
X561341D01*
X556263D01*
Y76203D01*
X566419Y88898D02*
X568958Y91438D01*
X574037D01*
X576576Y88898D01*
Y86359D01*
X574037Y83820D01*
X571497D01*
X574037D01*
X576576Y81281D01*
Y78742D01*
X574037Y76203D01*
X568958D01*
X566419Y78742D01*
X434340Y189479D02*
X444497D01*
X439418D01*
Y174244D01*
X459732D02*
X449575D01*
X459732Y184401D01*
Y186940D01*
X457193Y189479D01*
X452114D01*
X449575Y186940D01*
X469900Y256789D02*
X480057D01*
X474978D01*
Y241554D01*
X485135D02*
X490213D01*
X487674D01*
Y256789D01*
X485135Y254250D01*
X283972Y908812D02*
Y924047D01*
X291590D01*
X294129Y921508D01*
Y916430D01*
X291590Y913890D01*
X283972D01*
X289050D02*
X294129Y908812D01*
X299207Y924047D02*
Y921508D01*
X304285Y916430D01*
X309364Y921508D01*
Y924047D01*
X304285Y916430D02*
Y908812D01*
X314442D02*
X319520D01*
X316981D01*
Y924047D01*
X314442Y921508D01*
X1125227Y521973D02*
Y537207D01*
X1132844D01*
X1135383Y534668D01*
Y529590D01*
X1132844Y527051D01*
X1125227D01*
X1130305D02*
X1135383Y521973D01*
X1150618D02*
X1140462D01*
X1150618Y532129D01*
Y534668D01*
X1148079Y537207D01*
X1143001D01*
X1140462Y534668D01*
X1165853Y537207D02*
X1155697D01*
Y529590D01*
X1160775Y532129D01*
X1163314D01*
X1165853Y529590D01*
Y524512D01*
X1163314Y521973D01*
X1158236D01*
X1155697Y524512D01*
X1125227Y563882D02*
Y579118D01*
X1132844D01*
X1135383Y576578D01*
Y571500D01*
X1132844Y568961D01*
X1125227D01*
X1130305D02*
X1135383Y563882D01*
X1150618D02*
X1140462D01*
X1150618Y574039D01*
Y576578D01*
X1148079Y579118D01*
X1143001D01*
X1140462Y576578D01*
X1163314Y563882D02*
Y579118D01*
X1155697Y571500D01*
X1165853D01*
X1125227Y608587D02*
Y623821D01*
X1132844D01*
X1135383Y621282D01*
Y616204D01*
X1132844Y613665D01*
X1125227D01*
X1130305D02*
X1135383Y608587D01*
X1150618D02*
X1140462D01*
X1150618Y618743D01*
Y621282D01*
X1148079Y623821D01*
X1143001D01*
X1140462Y621282D01*
X1155697D02*
X1158236Y623821D01*
X1163314D01*
X1165853Y621282D01*
Y611126D01*
X1163314Y608587D01*
X1158236D01*
X1155697Y611126D01*
Y621282D01*
X277368Y510540D02*
Y525775D01*
X284986D01*
X287525Y523236D01*
Y518158D01*
X284986Y515618D01*
X277368D01*
X282446D02*
X287525Y510540D01*
X292603D02*
X297681D01*
X295142D01*
Y525775D01*
X292603Y523236D01*
X305299Y513079D02*
X307838Y510540D01*
X312917D01*
X315456Y513079D01*
Y523236D01*
X312917Y525775D01*
X307838D01*
X305299Y523236D01*
Y520697D01*
X307838Y518158D01*
X315456D01*
X227584Y510540D02*
Y525775D01*
X235201D01*
X237741Y523236D01*
Y518158D01*
X235201Y515618D01*
X227584D01*
X232662D02*
X237741Y510540D01*
X242819D02*
X247897D01*
X245358D01*
Y525775D01*
X242819Y523236D01*
X255515D02*
X258054Y525775D01*
X263132D01*
X265672Y523236D01*
Y520697D01*
X263132Y518158D01*
X265672Y515618D01*
Y513079D01*
X263132Y510540D01*
X258054D01*
X255515Y513079D01*
Y515618D01*
X258054Y518158D01*
X255515Y520697D01*
Y523236D01*
X258054Y518158D02*
X263132D01*
X674376Y440692D02*
Y455928D01*
X681994D01*
X684533Y453388D01*
Y448310D01*
X681994Y445771D01*
X674376D01*
X679454D02*
X684533Y440692D01*
X689611D02*
X694690D01*
X692150D01*
Y455928D01*
X689611Y453388D01*
X702307Y455928D02*
X712464D01*
Y453388D01*
X702307Y443232D01*
Y440692D01*
X672556Y485143D02*
Y500378D01*
X680173D01*
X682713Y497838D01*
Y492760D01*
X680173Y490221D01*
X672556D01*
X677634D02*
X682713Y485143D01*
X687791D02*
X692869D01*
X690330D01*
Y500378D01*
X687791Y497838D01*
X710644Y500378D02*
X705565Y497838D01*
X700487Y492760D01*
Y487682D01*
X703026Y485143D01*
X708104D01*
X710644Y487682D01*
Y490221D01*
X708104Y492760D01*
X700487D01*
X575316Y360682D02*
Y375918D01*
X582934D01*
X585473Y373378D01*
Y368300D01*
X582934Y365761D01*
X575316D01*
X580395D02*
X585473Y360682D01*
X590551D02*
X595630D01*
X593090D01*
Y375918D01*
X590551Y373378D01*
X613404Y375918D02*
X603247D01*
Y368300D01*
X608326Y370839D01*
X610865D01*
X613404Y368300D01*
Y363222D01*
X610865Y360682D01*
X605786D01*
X603247Y363222D01*
X574406Y403862D02*
Y419098D01*
X582024D01*
X584563Y416558D01*
Y411480D01*
X582024Y408941D01*
X574406D01*
X579484D02*
X584563Y403862D01*
X589641D02*
X594720D01*
X592180D01*
Y419098D01*
X589641Y416558D01*
X609955Y403862D02*
Y419098D01*
X602337Y411480D01*
X612494D01*
X573686Y444502D02*
Y459738D01*
X581304D01*
X583843Y457198D01*
Y452120D01*
X581304Y449581D01*
X573686D01*
X578764D02*
X583843Y444502D01*
X588921D02*
X594000D01*
X591460D01*
Y459738D01*
X588921Y457198D01*
X601617D02*
X604156Y459738D01*
X609235D01*
X611774Y457198D01*
Y454659D01*
X609235Y452120D01*
X606696D01*
X609235D01*
X611774Y449581D01*
Y447042D01*
X609235Y444502D01*
X604156D01*
X601617Y447042D01*
X574406Y485143D02*
Y500378D01*
X582024D01*
X584563Y497838D01*
Y492760D01*
X582024Y490221D01*
X574406D01*
X579484D02*
X584563Y485143D01*
X589641D02*
X594720D01*
X592180D01*
Y500378D01*
X589641Y497838D01*
X612494Y485143D02*
X602337D01*
X612494Y495299D01*
Y497838D01*
X609955Y500378D01*
X604876D01*
X602337Y497838D01*
X487685Y482603D02*
Y497837D01*
X495303D01*
X497842Y495298D01*
Y490220D01*
X495303Y487681D01*
X487685D01*
X492764D02*
X497842Y482603D01*
X502920D02*
X507999D01*
X505460D01*
Y497837D01*
X502920Y495298D01*
X515616Y482603D02*
X520695D01*
X518156D01*
Y497837D01*
X515616Y495298D01*
X488596Y444502D02*
Y459738D01*
X496213D01*
X498753Y457198D01*
Y452120D01*
X496213Y449581D01*
X488596D01*
X493674D02*
X498753Y444502D01*
X503831D02*
X508909D01*
X506370D01*
Y459738D01*
X503831Y457198D01*
X516527D02*
X519066Y459738D01*
X524145D01*
X526684Y457198D01*
Y447042D01*
X524145Y444502D01*
X519066D01*
X516527Y447042D01*
Y457198D01*
X243844Y443232D02*
Y458467D01*
X251462D01*
X254001Y455928D01*
Y450850D01*
X251462Y448311D01*
X243844D01*
X248923D02*
X254001Y443232D01*
X259079Y445772D02*
X261618Y443232D01*
X266697D01*
X269236Y445772D01*
Y455928D01*
X266697Y458467D01*
X261618D01*
X259079Y455928D01*
Y453389D01*
X261618Y450850D01*
X269236D01*
X487684Y403862D02*
Y419098D01*
X495302D01*
X497841Y416558D01*
Y411480D01*
X495302Y408941D01*
X487684D01*
X492762D02*
X497841Y403862D01*
X502919Y416558D02*
X505458Y419098D01*
X510537D01*
X513076Y416558D01*
Y414019D01*
X510537Y411480D01*
X513076Y408941D01*
Y406402D01*
X510537Y403862D01*
X505458D01*
X502919Y406402D01*
Y408941D01*
X505458Y411480D01*
X502919Y414019D01*
Y416558D01*
X505458Y411480D02*
X510537D01*
X243844Y401323D02*
Y416558D01*
X251462D01*
X254001Y414018D01*
Y408940D01*
X251462Y406401D01*
X243844D01*
X248923D02*
X254001Y401323D01*
X259079Y416558D02*
X269236D01*
Y414018D01*
X259079Y403862D01*
Y401323D01*
X243844Y363223D02*
Y378457D01*
X251462D01*
X254001Y375918D01*
Y370840D01*
X251462Y368301D01*
X243844D01*
X248923D02*
X254001Y363223D01*
X269236Y378457D02*
X264158Y375918D01*
X259079Y370840D01*
Y365762D01*
X261618Y363223D01*
X266697D01*
X269236Y365762D01*
Y368301D01*
X266697Y370840D01*
X259079D01*
X243844Y320042D02*
Y335277D01*
X251462D01*
X254001Y332738D01*
Y327660D01*
X251462Y325121D01*
X243844D01*
X248923D02*
X254001Y320042D01*
X269236Y335277D02*
X259079D01*
Y327660D01*
X264158Y330199D01*
X266697D01*
X269236Y327660D01*
Y322582D01*
X266697Y320042D01*
X261618D01*
X259079Y322582D01*
X647704Y124971D02*
Y140205D01*
X655322D01*
X657861Y137666D01*
Y132588D01*
X655322Y130049D01*
X647704D01*
X652783D02*
X657861Y124971D01*
X670557D02*
Y140205D01*
X662939Y132588D01*
X673096D01*
X605794Y124971D02*
Y140205D01*
X613412D01*
X615951Y137666D01*
Y132588D01*
X613412Y130049D01*
X605794D01*
X610872D02*
X615951Y124971D01*
X621029Y137666D02*
X623568Y140205D01*
X628647D01*
X631186Y137666D01*
Y135127D01*
X628647Y132588D01*
X626107D01*
X628647D01*
X631186Y130049D01*
Y127510D01*
X628647Y124971D01*
X623568D01*
X621029Y127510D01*
X562360Y124971D02*
Y140205D01*
X569978D01*
X572517Y137666D01*
Y132588D01*
X569978Y130049D01*
X562360D01*
X567439D02*
X572517Y124971D01*
X587752D02*
X577595D01*
X587752Y135127D01*
Y137666D01*
X585213Y140205D01*
X580134D01*
X577595Y137666D01*
X520703Y184268D02*
Y199504D01*
X528321D01*
X530860Y196964D01*
Y191886D01*
X528321Y189347D01*
X520703D01*
X525782D02*
X530860Y184268D01*
X535938D02*
X541017D01*
X538478D01*
Y199504D01*
X535938Y196964D01*
X632464Y353058D02*
Y337822D01*
X642621D01*
X657856D02*
X647699D01*
X657856Y347979D01*
Y350518D01*
X655317Y353058D01*
X650238D01*
X647699Y350518D01*
X217170Y241041D02*
Y225806D01*
X227327D01*
X232405D02*
X237483D01*
X234944D01*
Y241041D01*
X232405Y238502D01*
X824236Y689607D02*
X829314D01*
X826775D01*
Y674372D01*
X824236D01*
X829314D01*
X847089Y687068D02*
X844550Y689607D01*
X839471D01*
X836932Y687068D01*
Y676912D01*
X839471Y674372D01*
X844550D01*
X847089Y676912D01*
X859785Y674372D02*
Y689607D01*
X852167Y681990D01*
X862324D01*
X717042Y912871D02*
X722120D01*
X719581D01*
Y897636D01*
X717042D01*
X722120D01*
X739895Y910332D02*
X737355Y912871D01*
X732277D01*
X729738Y910332D01*
Y900175D01*
X732277Y897636D01*
X737355D01*
X739895Y900175D01*
X744973Y910332D02*
X747512Y912871D01*
X752590D01*
X755130Y910332D01*
Y907793D01*
X752590Y905254D01*
X750051D01*
X752590D01*
X755130Y902714D01*
Y900175D01*
X752590Y897636D01*
X747512D01*
X744973Y900175D01*
X334772Y457449D02*
X339850D01*
X337311D01*
Y442214D01*
X334772D01*
X339850D01*
X357625Y454910D02*
X355085Y457449D01*
X350007D01*
X347468Y454910D01*
Y444753D01*
X350007Y442214D01*
X355085D01*
X357625Y444753D01*
X372860Y442214D02*
X362703D01*
X372860Y452371D01*
Y454910D01*
X370321Y457449D01*
X365242D01*
X362703Y454910D01*
X1097284Y392427D02*
Y377192D01*
X1104902D01*
X1107441Y379732D01*
Y389888D01*
X1104902Y392427D01*
X1097284D01*
X1122676Y377192D02*
X1112519D01*
X1122676Y387349D01*
Y389888D01*
X1120137Y392427D01*
X1115058D01*
X1112519Y389888D01*
X266700Y592069D02*
Y576834D01*
X274317D01*
X276857Y579373D01*
Y589530D01*
X274317Y592069D01*
X266700D01*
X281935Y576834D02*
X287013D01*
X284474D01*
Y592069D01*
X281935Y589530D01*
X413593Y251458D02*
X411054Y253997D01*
X405976D01*
X403436Y251458D01*
Y241302D01*
X405976Y238762D01*
X411054D01*
X413593Y241302D01*
X418671Y238762D02*
X423750D01*
X421211D01*
Y253997D01*
X418671Y251458D01*
X438985Y238762D02*
Y253997D01*
X431367Y246380D01*
X441524D01*
X351793Y317498D02*
X349254Y320037D01*
X344175D01*
X341636Y317498D01*
Y307342D01*
X344175Y304802D01*
X349254D01*
X351793Y307342D01*
X356871Y304802D02*
X361950D01*
X359410D01*
Y320037D01*
X356871Y317498D01*
X369567D02*
X372106Y320037D01*
X377185D01*
X379724Y317498D01*
Y314959D01*
X377185Y312420D01*
X374646D01*
X377185D01*
X379724Y309881D01*
Y307342D01*
X377185Y304802D01*
X372106D01*
X369567Y307342D01*
X1141733Y335278D02*
X1139194Y337817D01*
X1134115D01*
X1131576Y335278D01*
Y325122D01*
X1134115Y322583D01*
X1139194D01*
X1141733Y325122D01*
X1146811Y322583D02*
X1151890D01*
X1149350D01*
Y337817D01*
X1146811Y335278D01*
X1169664Y322583D02*
X1159507D01*
X1169664Y332739D01*
Y335278D01*
X1167125Y337817D01*
X1162046D01*
X1159507Y335278D01*
X525782Y259078D02*
X523243Y261618D01*
X518164D01*
X515625Y259078D01*
Y248922D01*
X518164Y246383D01*
X523243D01*
X525782Y248922D01*
X530860Y246383D02*
X535939D01*
X533400D01*
Y261618D01*
X530860Y259078D01*
X543556Y246383D02*
X548635D01*
X546096D01*
Y261618D01*
X543556Y259078D01*
X707393Y167638D02*
X704854Y170177D01*
X699775D01*
X697236Y167638D01*
Y157482D01*
X699775Y154943D01*
X704854D01*
X707393Y157482D01*
X712471Y154943D02*
X717550D01*
X715010D01*
Y170177D01*
X712471Y167638D01*
X725167D02*
X727706Y170177D01*
X732785D01*
X735324Y167638D01*
Y157482D01*
X732785Y154943D01*
X727706D01*
X725167Y157482D01*
Y167638D01*
X789941Y203198D02*
X787402Y205737D01*
X782323D01*
X779784Y203198D01*
Y193042D01*
X782323Y190502D01*
X787402D01*
X789941Y193042D01*
X795019D02*
X797558Y190502D01*
X802637D01*
X805176Y193042D01*
Y203198D01*
X802637Y205737D01*
X797558D01*
X795019Y203198D01*
Y200659D01*
X797558Y198120D01*
X805176D01*
X720091Y241298D02*
X717552Y243838D01*
X712473D01*
X709934Y241298D01*
Y231142D01*
X712473Y228603D01*
X717552D01*
X720091Y231142D01*
X725169Y241298D02*
X727708Y243838D01*
X732787D01*
X735326Y241298D01*
Y238759D01*
X732787Y236220D01*
X735326Y233681D01*
Y231142D01*
X732787Y228603D01*
X727708D01*
X725169Y231142D01*
Y233681D01*
X727708Y236220D01*
X725169Y238759D01*
Y241298D01*
X727708Y236220D02*
X732787D01*
X463551Y721358D02*
X461012Y723897D01*
X455933D01*
X453394Y721358D01*
Y711202D01*
X455933Y708662D01*
X461012D01*
X463551Y711202D01*
X468629Y723897D02*
X478786D01*
Y721358D01*
X468629Y711202D01*
Y708662D01*
X741677Y744216D02*
X739137Y746755D01*
X734059D01*
X731520Y744216D01*
Y734059D01*
X734059Y731520D01*
X739137D01*
X741677Y734059D01*
X756912Y746755D02*
X751833Y744216D01*
X746755Y739137D01*
Y734059D01*
X749294Y731520D01*
X754373D01*
X756912Y734059D01*
Y736598D01*
X754373Y739137D01*
X746755D01*
X877059Y891282D02*
X874520Y893821D01*
X869441D01*
X866902Y891282D01*
Y881125D01*
X869441Y878586D01*
X874520D01*
X877059Y881125D01*
X892294Y893821D02*
X882137D01*
Y886204D01*
X887215Y888743D01*
X889755D01*
X892294Y886204D01*
Y881125D01*
X889755Y878586D01*
X884676D01*
X882137Y881125D01*
X497841Y375918D02*
X495302Y378457D01*
X490223D01*
X487684Y375918D01*
Y365762D01*
X490223Y363223D01*
X495302D01*
X497841Y365762D01*
X510537Y363223D02*
Y378457D01*
X502919Y370840D01*
X513076D01*
X254851Y253998D02*
X252312Y256537D01*
X247233D01*
X244694Y253998D01*
Y243842D01*
X247233Y241303D01*
X252312D01*
X254851Y243842D01*
X259929Y253998D02*
X262468Y256537D01*
X267547D01*
X270086Y253998D01*
Y251459D01*
X267547Y248920D01*
X265008D01*
X267547D01*
X270086Y246381D01*
Y243842D01*
X267547Y241303D01*
X262468D01*
X259929Y243842D01*
X497841Y337818D02*
X495302Y340358D01*
X490223D01*
X487684Y337818D01*
Y327662D01*
X490223Y325122D01*
X495302D01*
X497841Y327662D01*
X513076Y325122D02*
X502919D01*
X513076Y335279D01*
Y337818D01*
X510537Y340358D01*
X505458D01*
X502919Y337818D01*
X323850Y294638D02*
X321311Y297178D01*
X316232D01*
X313693Y294638D01*
Y284482D01*
X316232Y281943D01*
X321311D01*
X323850Y284482D01*
X328928Y281943D02*
X334007D01*
X331468D01*
Y297178D01*
X328928Y294638D01*
X539754Y916937D02*
Y901702D01*
X547372D01*
X549911Y904242D01*
Y906781D01*
X547372Y909320D01*
X539754D01*
X547372D01*
X549911Y911859D01*
Y914398D01*
X547372Y916937D01*
X539754D01*
X565146Y901702D02*
X554989D01*
X565146Y911859D01*
Y914398D01*
X562607Y916937D01*
X557528D01*
X554989Y914398D01*
X628653Y914398D02*
Y899163D01*
X636271D01*
X638810Y901702D01*
Y904241D01*
X636271Y906780D01*
X628653D01*
X636271D01*
X638810Y909319D01*
Y911858D01*
X636271Y914398D01*
X628653D01*
X643888Y899163D02*
X648967D01*
X646428D01*
Y914398D01*
X643888Y911858D01*
D14*
X762000Y883620D02*
G03*
X762000Y884620I0J500D01*
G01*
D02*
G03*
X762000Y883620I0J-500D01*
G01*
M02*
