M48
;Layer_Color=9474304
;FILE_FORMAT=4:4
METRIC,LZ
;TYPE=PLATED
T1F00S00C0.6096
T2F00S00C0.7112
T3F00S00C0.7620
T4F00S00C0.8128
T5F00S00C0.9144
T6F00S00C0.9398
T7F00S00C1.0160
T8F00S00C1.0668
T9F00S00C1.1430
T10F00S00C1.2192
T11F00S00C1.2700
T12F00S00C1.3970
T13F00S00C1.5240
T15F00S00C3.0000
%
T01
X003937Y0028956
X004191
X0058166Y002667
Y002413
X0075692Y0068326
Y0070866
T02
X0108839Y002921
X01013491Y00334998
X0101473Y0035941
X00856824Y00198673
X007239Y0019177
X0072009Y0013208
X006858
X0069723Y003683
X0058928Y003937
X0059182Y0043053
X0055753
X005207Y0038862
X0046355Y0039116
X0047625Y0035179
X0038227
X0029718Y0034798
X0030226Y0038862
X0032385Y0042418
X0041402Y0044704
X004572Y0026797
X0050292Y002413
X0049403Y0016256
X0057912Y0020701
X0060071Y002032
X0060198Y0031369
X0058039Y0034798
X005588Y0033401
X0028194Y0030861
X0026035Y0026924
X0027559Y0022606
X0024384Y0030353
X0023876Y0034925
X0022733Y0038989
X0034798Y0049403
X0041402Y0048133
X0040259Y0046736
X0047879Y0047117
X00724535Y0049149
X0070993Y0054229
X0070866Y0058293
X0079502Y0053467
X0103505Y0075184
X0106807Y0057658
X0108331Y00525272
X008001Y0117856
X0067183Y0115062
X00678434Y01224026
X00651764Y01226312
X0065024Y0129667
X0063246Y0132969
X00638048Y01357122
X00612648
X00587248
X00561848
X00536448
X00511048
X00485648
X00460248
X00434848
X00409448
X00384048
X0057277Y0132969
X00663448Y01357122
X00687578Y01362202
X0070104Y0132969
X0070358Y0130556
T03
X003429Y003429
Y003683
Y003937
Y004191
X00421
Y003937
Y003683
Y003429
T04
X0110998Y0025368
Y0036068
X0098742Y0036068
Y0033528
Y0030988
Y0028448
Y0025908
Y0023368
Y0020828
Y0018288
Y0015748
X0083312
Y0018288
Y0020828
Y0023368
Y0025908
Y0028448
Y0030988
Y0033528
Y0036068
Y0038608
Y0041148
Y0043688
X0098742
Y0041148
Y0038608
X0052705Y0010922
X0051308Y0009525
Y0012319
X0041402Y0055372
X0027302
X0068072Y005448
Y006858
X0083312Y0064008
Y0061468
Y0058928
Y0056388
Y0053848
Y0051308
Y0048768
Y0046228
X0098742
Y0048768
Y0051308
Y0053848
Y0056388
Y0058928
Y0061468
Y0064008
X0092202Y007882
Y008382
X00933488Y01280922
X00983488
T05
X0110998Y0014224
Y0016764
Y0019304
X0106553Y003175
Y003429
Y003683
X0104013
Y003429
Y003175
X010414Y0026924
Y0024384
Y0021844
Y0019304
Y0043688
X007747Y0038608
Y0036068
Y0033528
Y0030988
Y0028448
X00774446Y004572
Y004826
X010414Y0048768
Y0046228
Y0056896
Y0059436
Y0061976
X0104902Y0069596
X0102362
Y0077724
X0104902
X0107442
X0109982
X0112522
X0109982Y0069596
X0107442
X00993648Y01169162
X00968248
X00942848
X00917448
X00371094Y0154305
Y0156845
Y0159385
Y0161925
Y0164465
T06
X0044958Y00127
Y001524
X0046482Y001397
X0048514Y0019431
Y0021971
X0050038Y0020701
X0016764Y0045085
X001524Y0043815
Y0046355
T07
X0050165Y0062357
X0057665
X00178054Y0156885
Y0159385
Y0161885
X00323054
Y0156885
T08
X00762Y0079248
Y0081748
Y0084348
T09
X0055626Y00762
Y008001
Y008382
X0064516Y0083566
Y0079756
Y0075946
Y0087376
X0055626Y008763
T10
X00691388Y00285496
X0064135
T11
X0032004Y001524
Y001778
X0038354
Y001524
Y00127
X0024384Y001524
Y001778
T12
X0030854Y0062972
X0038354
Y0078232
Y0083272
X0030854
Y0078232
Y0088312
X0038354
T13
X0009144Y0006604
Y0014224
X0009017Y0027559
Y0035179
X0009144Y0056896
Y0064516
X000889Y0078486
Y0086106
T15
X0113792Y0007874
X0027432
X0113792Y0090805
X0106426Y0119888
X0007366
X0009271Y0098298
X0007366Y0137668
X0106426
M30
