G04*
G04 #@! TF.GenerationSoftware,Altium Limited,Altium Designer,23.4.1 (23)*
G04*
G04 Layer_Color=32896*
%FSLAX44Y44*%
%MOMM*%
G71*
G04*
G04 #@! TF.SameCoordinates,2680DE8E-D3BC-4794-95DD-0B2387E44050*
G04*
G04*
G04 #@! TF.FilePolarity,Positive*
G04*
G01*
G75*
%ADD11C,0.2000*%
%ADD13C,0.2540*%
D11*
X322554Y1529350D02*
Y1550670D01*
X322904Y1583690D02*
Y1604010D01*
X322554Y1634490D02*
Y1658350D01*
X183554D02*
X212414D01*
X292424D02*
X322554D01*
X183554Y1529350D02*
Y1551940D01*
Y1634490D02*
Y1658350D01*
Y1529350D02*
X213684D01*
X293694D02*
X322554D01*
D13*
X889762Y1124712D02*
Y1382522D01*
X172720Y1124712D02*
X889762D01*
X172720D02*
Y1382522D01*
X889762D01*
X933444Y1379218D02*
Y1363983D01*
X925827D01*
X923288Y1366522D01*
Y1376678D01*
X925827Y1379218D01*
X933444D01*
X918209D02*
Y1376678D01*
X913131Y1371600D01*
X908052Y1376678D01*
Y1379218D01*
X913131Y1371600D02*
Y1363983D01*
X902974D02*
X897896D01*
X900435D01*
Y1379218D01*
X902974Y1376678D01*
X174057Y1650744D02*
Y1638048D01*
X171518Y1635509D01*
X166439D01*
X163900Y1638048D01*
Y1650744D01*
X158822Y1635509D02*
X153743D01*
X156283D01*
Y1650744D01*
X158822Y1648204D01*
M02*
